0
SECTION
2
HEADER
9
$INSUNITS
70
4
9
$ACADVER
1
AC1014
9
$HANDSEED
5
FFFF
0
ENDSEC
0
SECTION
2
TABLES
0
TABLE
2
VPORT
5
8
100
AcDbSymbolTable
0
ENDTAB
0
TABLE
2
LTYPE
5
5
100
AcDbSymbolTable
0
LTYPE
5
14
100
AcDbSymbolTableRecord
100
AcDbLinetypeTableRecord
2
BYBLOCK
70
0
0
LTYPE
5
15
100
AcDbSymbolTableRecord
100
AcDbLinetypeTableRecord
2
BYLAYER
70
0
0
LTYPE
5
16
100
AcDbSymbolTableRecord
100
AcDbLinetypeTableRecord
2
DASHED
70
0
3
Dashed __ __ __ __ __ __ __ __ __ __ __ __ __ _
72
65
73
2
40
0.75
49
0.5
74
0
49
-0.25
74
0
0
ENDTAB
0
TABLE
2
LAYER
5
2
100
AcDbSymbolTable
70
2
0
LAYER
5
50
100
AcDbSymbolTableRecord
100
AcDbLayerTableRecord
2
0
70
0
62
7
6
CONTINUOUS
0
ENDTAB
0
TABLE
2
STYLE
5
3
100
AcDbSymbolTable
70
1
0
STYLE
5
11
100
AcDbSymbolTableRecord
100
AcDbTextStyleTableRecord
2
STANDARD
70
0
0
ENDTAB
0
TABLE
2
VIEW
5
6
100
AcDbSymbolTable
70
0
0
ENDTAB
0
TABLE
2
UCS
5
7
100
AcDbSymbolTable
70
0
0
ENDTAB
0
TABLE
2
APPID
5
9
100
AcDbSymbolTable
70
2
0
APPID
5
12
100
AcDbSymbolTableRecord
100
AcDbRegAppTableRecord
2
ACAD
70
0
0
ENDTAB
0
TABLE
2
DIMSTYLE
5
A
100
AcDbSymbolTable
70
1
0
ENDTAB
0
TABLE
2
BLOCK_RECORD
5
1
100
AcDbSymbolTable
70
1
0
BLOCK_RECORD
5
1F
100
AcDbSymbolTableRecord
100
AcDbBlockTableRecord
2
*MODEL_SPACE
0
BLOCK_RECORD
5
1B
100
AcDbSymbolTableRecord
100
AcDbBlockTableRecord
2
*PAPER_SPACE
0
ENDTAB
0
ENDSEC
0
SECTION
2
BLOCKS
0
BLOCK
5
20
100
AcDbEntity
100
AcDbBlockBegin
2
*MODEL_SPACE
0
ENDBLK
5
21
100
AcDbEntity
100
AcDbBlockEnd
0
BLOCK
5
1C
100
AcDbEntity
100
AcDbBlockBegin
2
*PAPER_SPACE
0
ENDBLK
5
1D
100
AcDbEntity
100
AcDbBlockEnd
0
ENDSEC
0
SECTION
2
ENTITIES
0
LWPOLYLINE
5
100
100
AcDbEntity
8
0
100
AcDbPolyline
90
39
70
1
43
0.0
10
118.49593270684477
20
-49.509849151814585
10
118.49593270685287
20
-35.513932151814586
42
0.41421333333267107
10
116.99593270685287
20
-34.013932151811687
10
115.99593270685287
20
-34.013932151807495
42
-0.41421333333263644
10
114.49593270684997
20
-32.513932151814593
10
114.49593270685287
20
-18.507725151814569
42
0.41495393746782427
10
112.99214470685288
20
-17.007729151805904
10
110.5359327068529
20
-17.013932151807502
42
-0.41421333333267107
10
109.03593270684996
20
-15.513932151814585
10
109.04593270685289
20
-0.11433815181457696
10
109.02674370684662
20
16.876878848185399
42
0.41404759818511028
10
107.52674370685293
20
18.376067848189031
10
76.995932706852912
20
18.376067848185393
42
0.41421333333461002
10
75.495932706849999
20
16.876067848185407
10
75.495932706847668
20
16.386067848185391
42
-0.41421399999698266
10
74.495932706852912
20
15.38606784819069
10
72.225932706852916
20
15.386067848185396
42
0.41421333333461696
10
70.725932706849932
20
13.886067848185375
10
70.725932706845782
20
1.4860678481854084
42
-0.41421333333069749
10
69.225932706852902
20
-0.013932151807471982
10
1.0259327068528989
20
-0.013932151814559646
42
0.41421333333459959
10
-0.47406729315000007
20
-1.513932151814581
10
-0.47406729314705132
20
-6.5039321518145687
10
-0.47406729314705132
20
-10.513932151814567
10
-0.47406729314705132
20
-40.503932151814574
10
-0.47406729314705132
20
-44.513932151814572
10
-0.47406729314705132
20
-74.513932151814572
10
-0.47406729314705132
20
-78.493932151814604
10
-0.47406729314705132
20
-83.513932151814601
42
0.41421333333263294
10
1.0259327068528634
20
-85.013932151807523
10
124.02593270685284
20
-85.013932151814586
42
0.41421333333073218
10
125.52593270684575
20
-83.513932151814601
10
125.52593270685286
20
-69.513932151814572
42
0.41421333335022542
10
124.02593270685284
20
-68.013932151721718
10
123.89593270685285
20
-68.013932151807481
42
-0.41421333333261906
10
122.39593270685003
20
-66.513932151814601
10
122.39593270685288
20
-52.511381151814575
42
0.41372936851272435
10
120.89848570685294
20
-51.011383151789154
10
119.99000370685295
20
-51.009837151813812
42
-0.41306100435476317
0
CIRCLE
5
101
100
AcDbEntity
8
0
100
AcDbCircle
10
17.535932706852897
20
-68.513932151814558
30
0
40
1
210
0
220
0
230
1
0
CIRCLE
5
102
100
AcDbEntity
8
0
100
AcDbCircle
10
62.525932706852942
20
-34.533932151814575
30
0
40
1
210
0
220
0
230
1
0
CIRCLE
5
103
100
AcDbEntity
8
0
100
AcDbCircle
10
123.20593270685286
20
-82.673932151814569
30
0
40
1
210
0
220
0
230
1
0
CIRCLE
5
104
100
AcDbEntity
8
0
100
AcDbCircle
10
20.975932706852909
20
-18.553932151814585
30
0
40
1
210
0
220
0
230
1
0
CIRCLE
5
105
100
AcDbEntity
8
0
100
AcDbCircle
10
94.025932706852871
20
-17.533932151814547
30
0
40
1
210
0
220
0
230
1
0
CIRCLE
5
106
100
AcDbEntity
8
0
100
AcDbCircle
10
107.54593270685289
20
16.916067848185399
30
0
40
1
210
0
220
0
230
1
0
LWPOLYLINE
5
107
100
AcDbEntity
8
0
100
AcDbPolyline
90
32
70
1
43
0.0
10
-1.9740672931470726
20
-40.503932151814574
10
-1.9740672931470726
20
-44.513932151814572
10
-1.9740672931470726
20
-74.513932151814572
10
-1.9740672931470726
20
-78.493932151814604
10
-1.9740672931470726
20
-83.513932151814601
42
0.4142133905932161
10
1.0259321203630734
20
-86.513932151804482
10
124.0259327068528
20
-86.513932151814601
42
0.41421339059129103
10
127.02593270685284
20
-83.513932738314409
10
127.02593270685284
20
-69.513932151815354
42
0.41421339060112783
10
124.02593329335261
20
-66.513932151714698
10
123.89593329334286
20
-66.513931565314579
10
123.89593270685285
20
-52.51139941120784
42
0.41372583197717361
10
120.90102033680431
20
-49.511385293180005
10
119.99593270684474
20
-49.509845069492641
10
119.99593270685288
20
-35.513932151815418
42
0.41421339059235246
10
116.99593329335265
20
-32.513932151804717
10
115.99593329334286
20
-32.513931565314593
10
115.99593270685287
20
-18.507725151814903
42
0.41495376729355321
10
112.98835574773622
20
-15.507733937213226
10
110.53593302621547
20
-15.513927367655009
10
110.54593325687452
20
-0.11397816664648452
10
110.52674323782139
20
16.878141165127907
42
0.41400769673745447
10
107.52674014803505
20
19.876067848272612
10
76.99593270685277
20
19.876067848185379
42
0.41323747224546076
10
73.99594937551754
20
16.886067848189505
10
72.225932706849392
20
16.886067848185384
42
0.41421339059387513
10
69.225932706852973
20
13.886068434675165
10
69.225932120352923
20
1.4860684346853947
10
1.0259327068527568
20
1.4860678481854261
42
0.41421339059419943
10
-1.9740672931469305
20
-1.5139315653247909
10
-1.9740672931470726
20
-6.5039321518154569
10
-1.9740672931470726
20
-10.513932151814567
0
ENDSEC
0
SECTION
2
OBJECTS
0
DICTIONARY
5
C
100
AcDbDictionary
3
ACAD_GROUP
350
D
3
ACAD_MLINESTYLE
350
17
0
DICTIONARY
5
D
100
AcDbDictionary
0
DICTIONARY
5
1A
330
C
100
AcDbDictionary
0
DICTIONARY
5
17
100
AcDbDictionary
0
ENDSEC
0
EOF
