0
SECTION
2
HEADER
9
$INSUNITS
70
4
0
ENDSEC
0
SECTION
2
TABLES
0
TABLE
2
LTYPE
0
LTYPE
72
65
70
64
2
CONTINUOUS
3
______
73
0
40
0
0
ENDTAB
0
TABLE
2
LAYER
0
ENDTAB
0
ENDSEC
0
SECTION
2
ENTITIES
0
LINE
8
0
10
2
20
-1.5
11
16
21
-1.5
0
LINE
8
0
10
2
20
-15.5
11
16
21
-15.5
0
LINE
8
0
10
2
20
-1.5
11
2
21
-15.5
0
LINE
8
0
10
16
20
-1.5
11
16
21
-15.5
0
LINE
8
0
10
20
20
-1.5
11
34
21
-1.5
0
LINE
8
0
10
20
20
-15.5
11
34
21
-15.5
0
LINE
8
0
10
20
20
-1.5
11
20
21
-15.5
0
LINE
8
0
10
34
20
-1.5
11
34
21
-15.5
0
LINE
8
0
10
38
20
-1.5
11
52
21
-1.5
0
LINE
8
0
10
38
20
-15.5
11
52
21
-15.5
0
LINE
8
0
10
38
20
-1.5
11
38
21
-15.5
0
LINE
8
0
10
52
20
-1.5
11
52
21
-15.5
0
LINE
8
0
10
56
20
-1.5
11
70
21
-1.5
0
LINE
8
0
10
56
20
-15.5
11
70
21
-15.5
0
LINE
8
0
10
56
20
-1.5
11
56
21
-15.5
0
LINE
8
0
10
70
20
-1.5
11
70
21
-15.5
0
LINE
8
0
10
74
20
-1.5
11
88
21
-1.5
0
LINE
8
0
10
74
20
-15.5
11
88
21
-15.5
0
LINE
8
0
10
74
20
-1.5
11
74
21
-15.5
0
LINE
8
0
10
88
20
-1.5
11
88
21
-15.5
0
LINE
8
0
10
92
20
-1.5
11
106
21
-1.5
0
LINE
8
0
10
92
20
-15.5
11
106
21
-15.5
0
LINE
8
0
10
92
20
-1.5
11
92
21
-15.5
0
LINE
8
0
10
106
20
-1.5
11
106
21
-15.5
0
LINE
8
0
10
4.25
20
-18.5
11
18.25
21
-18.5
0
LINE
8
0
10
4.25
20
-32.5
11
18.25
21
-32.5
0
LINE
8
0
10
4.25
20
-18.5
11
4.25
21
-32.5
0
LINE
8
0
10
18.25
20
-18.5
11
18.25
21
-32.5
0
LINE
8
0
10
24.5
20
-18.5
11
38.5
21
-18.5
0
LINE
8
0
10
24.5
20
-32.5
11
38.5
21
-32.5
0
LINE
8
0
10
24.5
20
-18.5
11
24.5
21
-32.5
0
LINE
8
0
10
38.5
20
-18.5
11
38.5
21
-32.5
0
LINE
8
0
10
42.5
20
-18.5
11
56.5
21
-18.5
0
LINE
8
0
10
42.5
20
-32.5
11
56.5
21
-32.5
0
LINE
8
0
10
42.5
20
-18.5
11
42.5
21
-32.5
0
LINE
8
0
10
56.5
20
-18.5
11
56.5
21
-32.5
0
LINE
8
0
10
60.5
20
-18.5
11
74.5
21
-18.5
0
LINE
8
0
10
60.5
20
-32.5
11
74.5
21
-32.5
0
LINE
8
0
10
60.5
20
-18.5
11
60.5
21
-32.5
0
LINE
8
0
10
74.5
20
-18.5
11
74.5
21
-32.5
0
LINE
8
0
10
78.5
20
-18.5
11
92.5
21
-18.5
0
LINE
8
0
10
78.5
20
-32.5
11
92.5
21
-32.5
0
LINE
8
0
10
78.5
20
-18.5
11
78.5
21
-32.5
0
LINE
8
0
10
92.5
20
-18.5
11
92.5
21
-32.5
0
LINE
8
0
10
96.5
20
-18.5
11
110.5
21
-18.5
0
LINE
8
0
10
96.5
20
-32.5
11
110.5
21
-32.5
0
LINE
8
0
10
96.5
20
-18.5
11
96.5
21
-32.5
0
LINE
8
0
10
110.5
20
-18.5
11
110.5
21
-32.5
0
LINE
8
0
10
6.5
20
-35.5
11
20.5
21
-35.5
0
LINE
8
0
10
6.5
20
-49.5
11
20.5
21
-49.5
0
LINE
8
0
10
6.5
20
-35.5
11
6.5
21
-49.5
0
LINE
8
0
10
20.5
20
-35.5
11
20.5
21
-49.5
0
LINE
8
0
10
29
20
-35.5
11
43
21
-35.5
0
LINE
8
0
10
29
20
-49.5
11
43
21
-49.5
0
LINE
8
0
10
29
20
-35.5
11
29
21
-49.5
0
LINE
8
0
10
43
20
-35.5
11
43
21
-49.5
0
LINE
8
0
10
47
20
-35.5
11
61
21
-35.5
0
LINE
8
0
10
47
20
-49.5
11
61
21
-49.5
0
LINE
8
0
10
47
20
-35.5
11
47
21
-49.5
0
LINE
8
0
10
61
20
-35.5
11
61
21
-49.5
0
LINE
8
0
10
65
20
-35.5
11
79
21
-35.5
0
LINE
8
0
10
65
20
-49.5
11
79
21
-49.5
0
LINE
8
0
10
65
20
-35.5
11
65
21
-49.5
0
LINE
8
0
10
79
20
-35.5
11
79
21
-49.5
0
LINE
8
0
10
83
20
-35.5
11
97
21
-35.5
0
LINE
8
0
10
83
20
-49.5
11
97
21
-49.5
0
LINE
8
0
10
83
20
-35.5
11
83
21
-49.5
0
LINE
8
0
10
97
20
-35.5
11
97
21
-49.5
0
LINE
8
0
10
101
20
-35.5
11
115
21
-35.5
0
LINE
8
0
10
101
20
-49.5
11
115
21
-49.5
0
LINE
8
0
10
101
20
-35.5
11
101
21
-49.5
0
LINE
8
0
10
115
20
-35.5
11
115
21
-49.5
0
LINE
8
0
10
8.75
20
-52.5
11
22.75
21
-52.5
0
LINE
8
0
10
8.75
20
-66.5
11
22.75
21
-66.5
0
LINE
8
0
10
8.75
20
-52.5
11
8.75
21
-66.5
0
LINE
8
0
10
22.75
20
-52.5
11
22.75
21
-66.5
0
LINE
8
0
10
33.5
20
-52.5
11
47.5
21
-52.5
0
LINE
8
0
10
33.5
20
-66.5
11
47.5
21
-66.5
0
LINE
8
0
10
33.5
20
-52.5
11
33.5
21
-66.5
0
LINE
8
0
10
47.5
20
-52.5
11
47.5
21
-66.5
0
LINE
8
0
10
51.5
20
-52.5
11
65.5
21
-52.5
0
LINE
8
0
10
51.5
20
-66.5
11
65.5
21
-66.5
0
LINE
8
0
10
51.5
20
-52.5
11
51.5
21
-66.5
0
LINE
8
0
10
65.5
20
-52.5
11
65.5
21
-66.5
0
LINE
8
0
10
69.5
20
-52.5
11
83.5
21
-52.5
0
LINE
8
0
10
69.5
20
-66.5
11
83.5
21
-66.5
0
LINE
8
0
10
69.5
20
-52.5
11
69.5
21
-66.5
0
LINE
8
0
10
83.5
20
-52.5
11
83.5
21
-66.5
0
LINE
8
0
10
87.5
20
-52.5
11
101.5
21
-52.5
0
LINE
8
0
10
87.5
20
-66.5
11
101.5
21
-66.5
0
LINE
8
0
10
87.5
20
-52.5
11
87.5
21
-66.5
0
LINE
8
0
10
101.5
20
-52.5
11
101.5
21
-66.5
0
LINE
8
0
10
105.5
20
-52.5
11
119.5
21
-52.5
0
LINE
8
0
10
105.5
20
-66.5
11
119.5
21
-66.5
0
LINE
8
0
10
105.5
20
-52.5
11
105.5
21
-66.5
0
LINE
8
0
10
119.5
20
-52.5
11
119.5
21
-66.5
0
LINE
8
0
10
2
20
-69.5
11
16
21
-69.5
0
LINE
8
0
10
2
20
-83.5
11
16
21
-83.5
0
LINE
8
0
10
2
20
-69.5
11
2
21
-83.5
0
LINE
8
0
10
16
20
-69.5
11
16
21
-83.5
0
LINE
8
0
10
20
20
-69.5
11
34
21
-69.5
0
LINE
8
0
10
20
20
-83.5
11
34
21
-83.5
0
LINE
8
0
10
20
20
-69.5
11
20
21
-83.5
0
LINE
8
0
10
34
20
-69.5
11
34
21
-83.5
0
LINE
8
0
10
38
20
-69.5
11
52
21
-69.5
0
LINE
8
0
10
38
20
-83.5
11
52
21
-83.5
0
LINE
8
0
10
38
20
-69.5
11
38
21
-83.5
0
LINE
8
0
10
52
20
-69.5
11
52
21
-83.5
0
LINE
8
0
10
56
20
-69.5
11
70
21
-69.5
0
LINE
8
0
10
56
20
-83.5
11
70
21
-83.5
0
LINE
8
0
10
56
20
-69.5
11
56
21
-83.5
0
LINE
8
0
10
70
20
-69.5
11
70
21
-83.5
0
LINE
8
0
10
92
20
-69.5
11
106
21
-69.5
0
LINE
8
0
10
92
20
-83.5
11
106
21
-83.5
0
LINE
8
0
10
92
20
-69.5
11
92
21
-83.5
0
LINE
8
0
10
106
20
-69.5
11
106
21
-83.5
0
LINE
8
0
10
0
20
-85
11
126
21
-85
0
LINE
8
0
10
0
20
0
11
126
21
0
0
LINE
8
0
10
0
20
-85
11
0
21
0
0
LINE
8
0
10
126
20
-85
11
126
21
0
0
ENDSEC
0
EOF